# xmcd
# 
# Track frame offsets:
#     150
#     13185
#     22898
#     40375
# 
# Disc length: 688
# 
# Revision: 0
# Processed by: cddbd v1.5.2PL0 Copyright (c) Steve Scherf et al.
# Submitted via: BonkEnc v1.0.15
# 
DISCID=2702ae04
DTITLE=Johnny Hallyday - Mon anneau d'or
DYEAR=65
DGENRE=Rock
TTITLE0=Mon anneau d'or
TTITLE1=Ne joue pas ce jeu_là
TTITLE2=Laisse un peu d'amour
TTITLE3=Ne pleure pas
EXTD=
EXTT0=
EXTT1=
EXTT2=
EXTT3=
PLAYORDER=
